<svg width="1922" height="490" viewBox="0 0 1922 490" fill="none" xmlns="http://www.w3.org/2000/svg">
<path d="M2 161.899H262.581C286.151 161.899 297.936 161.899 305.259 169.221C312.581 176.543 312.581 188.328 312.581 211.899V366.934C312.581 390.504 312.581 402.289 319.903 409.612C327.226 416.934 339.011 416.934 362.581 416.934H472.136C495.706 416.934 507.491 416.934 514.813 409.612C522.136 402.289 522.136 390.504 522.136 366.934V256.601C522.136 233.031 522.136 221.246 529.458 213.924C536.78 206.601 548.565 206.601 572.136 206.601H689.692C713.262 206.601 725.048 206.601 732.37 199.279C739.692 191.957 739.692 180.172 739.692 156.601V52C739.692 28.4298 739.692 16.6447 747.015 9.32233C754.337 2 766.122 2 789.692 2H923.753C947.324 2 959.109 2 966.431 9.32233C973.753 16.6447 973.753 28.4298 973.753 52V438C973.753 461.57 973.753 473.355 981.076 480.678C988.398 488 1000.18 488 1023.75 488H1107.3C1130.87 488 1142.66 488 1149.98 480.678C1157.3 473.355 1157.3 461.57 1157.3 438V337.41C1157.3 313.84 1157.3 302.055 1164.62 294.733C1171.95 287.41 1183.73 287.41 1207.3 287.41H1310.35C1333.92 287.41 1345.71 287.41 1353.03 280.088C1360.35 272.766 1360.35 260.981 1360.35 237.41V103.007C1360.35 79.4368 1360.35 67.6517 1367.68 60.3294C1375 53.0071 1386.78 53.0071 1410.35 53.0071H1550.92C1574.49 53.0071 1586.27 53.0071 1593.59 60.3294C1600.92 67.6517 1600.92 79.4368 1600.92 103.007V237.41C1600.92 260.981 1600.92 272.766 1608.24 280.088C1615.56 287.41 1627.35 287.41 1650.92 287.41H1920" stroke="#D4D4D4" stroke-opacity="0.6" stroke-width="4" stroke-linecap="round"/>
</svg>
